<svg width="1920" height="1080" viewBox="0 0 1920 1080" xmlns="http://www.w3.org/2000/svg"><rect width="1920" height="1080" fill="#292929"/><path d="M 0,1080 C 0,1080 0,360 0,360 C 66.98205128205129,379.5282051282052 133.96410256410257,399.0564102564103 238,422 C 342.0358974358974,444.9435897435897 483.125641025641,471.3025641025641 600,463 C 716.874358974359,454.6974358974359 809.5333333333333,411.73333333333335 907,419 C 1004.4666666666667,426.26666666666665 1106.7410256410258,483.7641025641026 1252,488 C 1397.2589743589742,492.2358974358974 1585.5025641025643,443.2102564102564 1704,413 C 1822.4974358974357,382.7897435897436 1871.248717948718,371.3948717948718 1920,360 C 1920,360 1920,1080 1920,1080 Z" fill="#1e1e1e" opacity="0.19999999999999998"/><path d="M 0,1080 C 0,1080 0,720 0,720 C 64.72307692307692,681.4538461538461 129.44615384615383,642.9076923076924 237,667 C 344.55384615384617,691.0923076923076 494.9384615384615,777.8230769230769 635,821 C 775.0615384615385,864.1769230769231 904.8,863.8000000000001 1026,846 C 1147.2,828.1999999999999 1259.8615384615384,792.9769230769232 1365,801 C 1470.1384615384616,809.0230769230768 1567.753846153846,860.2923076923076 1659,854 C 1750.246153846154,847.7076923076924 1835.123076923077,783.8538461538462 1920,720 C 1920,720 1920,1080 1920,1080 Z" fill="#1e1e1e" opacity="0.39999999999999997"/></svg>